<svg version="1" xmlns="http://www.w3.org/2000/svg" width="1381.333" height="1381.333" viewBox="0 0 1036.000000 1036.000000"><path d="M1 518v518h1035V0H1v518zm869.2-352.3L994 289.5V993H290.5L166.9 869.7 43.3 746.5l-.1-352.3L43 42h703.5l123.7 123.7zm123.8-30c0 51.5-.2 93.4-.5 93.2l-93.7-93.7L806.5 42H994v93.7zM137 899.5l93.5 93.5H43v-93.5c0-51.4.1-93.5.3-93.5.1 0 42.3 42.1 93.7 93.5z"/><path d="M366 517.5V754h81l.1-115.8V522.5l15.3 57c8.4 31.3 15.6 58.2 16 59.7l.6 2.8h79l.6-2.8c.4-1.5 7.6-28.4 16-59.7l15.3-57v115.7L590 754h81V281h-79.9l-3.8 12.2c-2.1 6.8-18.3 58.1-35.8 114-17.6 56-32.2 101.8-32.5 101.8-.3 0-14.6-44.2-31.8-98.3-17.2-54-33.5-105.3-36.3-114l-5-15.7H366v236.5zm55.4-216.3c-8 7.9-14.9 14.4-15.3 14.6-.3.1-7.1-6.3-15.1-14.3L376.5 287H436l-14.6 14.2zm223.3.5L630 316.5l-14.7-14.8-14.8-14.7h59l-14.8 14.7zm-22.3 15.4c.4.4-21.9 63.3-49.5 139.8L522.5 596l-.2-37.8-.3-37.7L558 407c19.8-62.4 36.3-114.1 36.5-114.9.4-.9 5 2.9 13.8 11.5 7.2 7 13.6 13.1 14.1 13.5zM403 517.5v195L387.5 728 372 743.5v-452l15.5 15.5 15.5 15.5v195zM612.5 728L597 743.5v-247l15.2-77.9 15.3-77.8.3 185.8.2 185.9-15.5 15.5zM466 482.3l45.2 122.8-13.1 13.4c-7.2 7.4-13.5 13.4-13.9 13.3-.4-.1-8.9-30.5-19-67.7-18.1-67.3-18.3-67.9-31.7-135.6-13.2-66.7-13.9-70.3-13.1-69.4.2.2 20.7 55.7 45.6 123.2z"/></svg>