<svg xmlns="http://www.w3.org/2000/svg" viewBox="0 0 144 144"><defs><style>.a{fill:#0082be}</style></defs><title>Artboard 1</title><path d="M133.37,0H10.63A10.63,10.63,0,0,0,0,10.63V133.37A10.63,10.63,0,0,0,10.63,144H133.37A10.63,10.63,0,0,0,144,133.37V10.63A10.63,10.63,0,0,0,133.37,0ZM42.92,122.68H21.27V53.9H42.92ZM32.1,44.37A12.25,12.25,0,0,1,19.61,32,12.27,12.27,0,0,1,32.1,19.51,12.27,12.27,0,0,1,44.58,32,12.25,12.25,0,0,1,32.1,44.37Zm90.63,78.36H101.08V85.17c0-11.09-4.71-14.51-10.78-14.51-6.43,0-12.73,4.84-12.73,14.78v37.29H55.93V54H76.75v9.53H77C79.12,59.25,86.43,52,97.6,52c12.08,0,25.13,7.17,25.13,28.17Z" class="a"/></svg>