<svg xmlns="http://www.w3.org/2000/svg" baseProfile="tiny" version="1" viewBox="0 0 1035 1036"><switch><g><path fill="#353535" d="M590 281h80v473h-81V522l-32 120h-79l-32-120v232h-81V281h80l73 229 72-229zm-188 42l-31-31v451l31-31V323zm3-7l30-29h-59l29 29zm41 180l37 137 27-28-92-250 28 141zm148-205l-73 230v76l101-279-28-27zm2 206v246l31-31V339l-31 158zm33-181l29-29h-58l29 29z"/><path d="M0 0v1036h1035V0H0zm42 993V805l188 188H42zm951 0H290L42 746V42h704l247 248v703zm0-763L805 42h188v188z"/></g></switch></svg>